<svg width="64" height="28" viewBox="0 0 64 28" fill="none" xmlns="http://www.w3.org/2000/svg">
<g clip-path="url(#clip0_1_371)">
<path d="M0.207031 24.224C0.207031 23.384 0.471031 22.724 0.999031 22.244C1.52703 21.74 2.22303 21.488 3.08703 21.488C3.99903 21.488 4.71903 21.74 5.24703 22.244C5.77503 22.724 6.03903 23.384 6.03903 24.224C6.03903 25.064 5.77503 25.736 5.24703 26.24C4.71903 26.744 3.99903 26.996 3.08703 26.996C2.22303 26.996 1.52703 26.744 0.999031 26.24C0.471031 25.736 0.207031 25.064 0.207031 24.224Z" fill="#102A43"/>
<path d="M25.9977 5.792H18.6537V26.6H13.7217V5.792H6.34166V1.4H25.9977V5.792Z" fill="#102A43"/>
<path d="M44.5843 25.556C43.8163 26.108 42.8323 26.504 41.6323 26.744C40.4563 26.984 39.2443 27.104 37.9963 27.104C36.4843 27.104 35.0443 26.876 33.6763 26.42C32.3323 25.94 31.1443 25.184 30.1123 24.152C29.0803 23.096 28.2523 21.74 27.6283 20.084C27.0283 18.404 26.7283 16.376 26.7283 14C26.7283 11.528 27.0643 9.464 27.7363 7.808C28.4323 6.128 29.3203 4.784 30.4003 3.776C31.5043 2.744 32.7283 2.012 34.0723 1.58C35.4163 1.124 36.7603 0.895996 38.1043 0.895996C39.5443 0.895996 40.7563 0.991996 41.7403 1.184C42.7483 1.376 43.5763 1.604 44.2243 1.868L43.2523 6.044C42.7003 5.78 42.0403 5.588 41.2723 5.468C40.5283 5.348 39.6163 5.288 38.5363 5.288C36.5443 5.288 34.9363 5.996 33.7123 7.412C32.5123 8.828 31.9123 11.024 31.9123 14C31.9123 15.296 32.0563 16.484 32.3443 17.564C32.6323 18.62 33.0643 19.532 33.6403 20.3C34.2403 21.044 34.9723 21.632 35.8363 22.064C36.7243 22.472 37.7443 22.676 38.8963 22.676C39.9763 22.676 40.8883 22.568 41.6323 22.352C42.3763 22.136 43.0243 21.86 43.5763 21.524L44.5843 25.556Z" fill="#102A43"/>
<path d="M58.8617 19.832C58.8617 19.064 58.5737 18.44 57.9977 17.96C57.4457 17.48 56.7377 17.048 55.8737 16.664C55.0337 16.256 54.1097 15.848 53.1017 15.44C52.1177 15.008 51.1937 14.492 50.3297 13.892C49.4897 13.268 48.7817 12.5 48.2057 11.588C47.6537 10.676 47.3777 9.512 47.3777 8.096C47.3777 6.872 47.5817 5.816 47.9897 4.928C48.3977 4.016 48.9737 3.26 49.7177 2.66C50.4857 2.06 51.3857 1.616 52.4177 1.328C53.4497 1.04 54.6017 0.895996 55.8737 0.895996C57.3377 0.895996 58.7177 1.028 60.0137 1.292C61.3097 1.532 62.3777 1.892 63.2177 2.372L61.6697 6.512C61.1417 6.176 60.3497 5.876 59.2937 5.612C58.2377 5.324 57.0977 5.18 55.8737 5.18C54.7217 5.18 53.8337 5.408 53.2097 5.864C52.6097 6.32 52.3097 6.932 52.3097 7.7C52.3097 8.42 52.5857 9.02 53.1377 9.5C53.7137 9.98 54.4217 10.424 55.2617 10.832C56.1257 11.24 57.0497 11.66 58.0337 12.092C59.0417 12.524 59.9657 13.052 60.8057 13.676C61.6697 14.276 62.3777 15.032 62.9297 15.944C63.5057 16.832 63.7937 17.948 63.7937 19.292C63.7937 20.636 63.5657 21.8 63.1097 22.784C62.6777 23.744 62.0537 24.548 61.2377 25.196C60.4457 25.844 59.4737 26.324 58.3217 26.636C57.1937 26.948 55.9457 27.104 54.5777 27.104C52.7777 27.104 51.1937 26.936 49.8257 26.6C48.4577 26.264 47.4497 25.928 46.8017 25.592L48.3857 21.38C48.6497 21.524 48.9857 21.68 49.3937 21.848C49.8257 22.016 50.3057 22.172 50.8337 22.316C51.3617 22.46 51.9137 22.58 52.4897 22.676C53.0897 22.772 53.7017 22.82 54.3257 22.82C55.7897 22.82 56.9057 22.58 57.6737 22.1C58.4657 21.596 58.8617 20.84 58.8617 19.832Z" fill="#102A43"/>
</g>
<defs>
<clipPath id="clip0_1_371">
<rect width="64" height="27" fill="white" transform="translate(0 0.5)"/>
</clipPath>
</defs>
</svg>
