<svg width="41" height="40" viewBox="0 0 41 40" fill="none" xmlns="http://www.w3.org/2000/svg">
<g clip-path="url(#clip0_1_401)">
<path d="M28.2108 23.75C29.2463 23.75 30.0858 22.9105 30.0858 21.875C30.0858 20.8395 29.2463 20 28.2108 20C27.1752 20 26.3358 20.8395 26.3358 21.875C26.3358 22.9105 27.1752 23.75 28.2108 23.75Z" fill="#8719E0"/>
<path d="M36.4286 3.65736C35.8428 3.07157 34.893 3.07157 34.3073 3.65736L3.74999 34.2146C3.16421 34.8004 3.16421 35.7502 3.74999 36.3359C4.33578 36.9217 5.28553 36.9217 5.87131 36.3359L36.4286 5.77868C37.0144 5.19289 37.0144 4.24314 36.4286 3.65736Z" fill="#8719E0"/>
<path d="M8.83576 6.00002H29.8433L26.8433 9.00002H8.83576C8.57054 9.00002 8.31618 9.10537 8.12865 9.29291C7.94111 9.48045 7.83576 9.7348 7.83576 10C7.83576 10.2652 7.94111 10.5196 8.12865 10.7071C8.31618 10.8947 8.57054 11 8.83576 11H24.8433L21.8433 14H8.83576C8.49549 14 8.1597 13.9567 7.83576 13.873V28.0075L4.93924 30.904C4.871 30.6099 4.83575 30.3068 4.83575 30V10C4.83575 8.93915 5.25718 7.92174 6.00733 7.17159C6.75747 6.42144 7.77489 6.00002 8.83576 6.00002Z" fill="#8719E0"/>
<path d="M30.3285 14L33.3285 11H33.8358C34.5651 11 35.2646 11.2897 35.7803 11.8055C36.296 12.3212 36.5858 13.0207 36.5858 13.75V31.25C36.5858 31.9794 36.296 32.6788 35.7803 33.1946C35.2646 33.7103 34.5651 34 33.8358 34H10.3285L13.3285 31H33.5858V14H30.3285Z" fill="#8719E0"/>
</g>
<defs>
<clipPath id="clip0_1_401">
<rect width="40" height="40" fill="white" transform="translate(0.0857544)"/>
</clipPath>
</defs>
</svg>
