<svg width="60" height="60" viewBox="0 0 60 60" fill="none" xmlns="http://www.w3.org/2000/svg">
<g clip-path="url(#clip0_1_954)">
<path d="M9.375 39.375V16.875C9.375 15.8804 9.77009 14.9266 10.4733 14.2233C11.1766 13.5201 12.1304 13.125 13.125 13.125H46.875C47.8696 13.125 48.8234 13.5201 49.5266 14.2233C50.2299 14.9266 50.625 15.8804 50.625 16.875V39.375" stroke="#E019D0" stroke-width="3" stroke-linecap="round" stroke-linejoin="round"/>
<path d="M5.625 39.375H54.375V45C54.375 45.9946 53.9799 46.9484 53.2766 47.6516C52.5734 48.3549 51.6196 48.75 50.625 48.75H9.375C8.38044 48.75 7.42661 48.3549 6.72335 47.6516C6.02009 46.9484 5.625 45.9946 5.625 45V39.375Z" stroke="#E019D0" stroke-width="3" stroke-linecap="round" stroke-linejoin="round"/>
<path d="M33.75 22.5H26.25" stroke="#E019D0" stroke-width="3" stroke-linecap="round" stroke-linejoin="round"/>
</g>
<defs>
<clipPath id="clip0_1_954">
<rect width="60" height="60" fill="white"/>
</clipPath>
</defs>
</svg>
