<svg width="16" height="17" viewBox="0 0 16 17" fill="none" xmlns="http://www.w3.org/2000/svg">
<path d="M14.6666 11.7802V13.7802C14.6674 13.9659 14.6294 14.1497 14.555 14.3198C14.4806 14.4899 14.3715 14.6426 14.2347 14.7681C14.0979 14.8937 13.9364 14.9892 13.7605 15.0487C13.5846 15.1082 13.3982 15.1303 13.2133 15.1136C11.1619 14.8907 9.19131 14.1897 7.45998 13.0669C5.84919 12.0433 4.48353 10.6777 3.45998 9.06689C2.33329 7.3277 1.63214 5.34756 1.41331 3.28689C1.39665 3.10254 1.41856 2.91673 1.47764 2.74131C1.53673 2.56589 1.63169 2.40469 1.75649 2.26797C1.88128 2.13126 2.03318 2.02203 2.2025 1.94724C2.37183 1.87245 2.55487 1.83374 2.73998 1.83356H4.73998C5.06351 1.83038 5.37717 1.94495 5.62248 2.15592C5.8678 2.36689 6.02803 2.65986 6.07331 2.98023C6.15772 3.62027 6.31428 4.24871 6.53998 4.85356C6.62967 5.09218 6.64908 5.3515 6.59591 5.60081C6.54274 5.85012 6.41922 6.07897 6.23998 6.26023L5.39331 7.10689C6.34235 8.77592 7.72428 10.1579 9.39331 11.1069L10.24 10.2602C10.4212 10.081 10.6501 9.95746 10.8994 9.90429C11.1487 9.85112 11.408 9.87053 11.6466 9.96023C12.2515 10.1859 12.8799 10.3425 13.52 10.4269C13.8438 10.4726 14.1396 10.6357 14.351 10.8852C14.5624 11.1348 14.6748 11.4533 14.6666 11.7802Z" stroke="#627D98" stroke-width="1.5" stroke-linecap="round" stroke-linejoin="round"/>
</svg>
