<svg width="60" height="60" viewBox="0 0 60 60" fill="none" xmlns="http://www.w3.org/2000/svg">
<path d="M12.5171 33.0571L16.8697 24.6203C17.1308 23.2855 17.3122 21.8999 17.4936 20.5579C17.9288 17.1918 18.3061 14.2828 19.8803 13.1584C20.193 12.9394 20.5491 12.7898 20.9244 12.7197C21.2998 12.6497 21.6858 12.6607 22.0566 12.7522C25.3936 13.4123 25.4879 18.8966 25.4951 19.1215L25.6112 25.723L42.3252 12.7739C43.0832 12.1865 44.0429 11.9231 44.9945 12.0414C45.9461 12.1597 46.8122 12.65 47.4033 13.4051C47.687 13.775 47.895 14.1973 48.0154 14.6478C48.1358 15.0982 48.1662 15.568 48.1049 16.0301C48.0435 16.4923 47.8917 16.9379 47.6581 17.3414C47.4244 17.7449 47.1135 18.0983 46.7432 18.3815L38.2991 24.9105C39.0336 25.1171 39.6822 25.5545 40.1489 26.1582C40.6677 26.8103 40.9404 27.6242 40.9192 28.4572C40.898 29.2902 40.5842 30.0892 40.0329 30.714C40.6288 30.8567 41.1775 31.1517 41.6253 31.5701C42.0731 31.9884 42.4046 32.5159 42.5873 33.1008C42.7701 33.6857 42.798 34.3081 42.6681 34.907C42.5382 35.5059 42.2551 36.0608 41.8465 36.5174C42.4947 36.6768 43.0848 37.0158 43.549 37.4956C44.0132 37.9753 44.3326 38.5763 44.4705 39.2294C44.6084 39.8826 44.5592 40.5614 44.3286 41.1878C44.0979 41.8142 43.6952 42.3629 43.1668 42.7707L37.5229 47.1233C36.9333 47.5725 36.218 47.8262 35.4771 47.8488C35.4524 47.8794 35.4257 47.9085 35.3973 47.9358L30.5079 51.2583C28.9549 52.2878 27.0728 52.6986 25.2321 52.4099C23.3914 52.1213 21.7255 51.154 20.5622 49.6986L13.2062 40.268C12.4696 39.2318 12.0182 38.0203 11.8972 36.7547C11.7763 35.4892 11.99 34.214 12.5171 33.0571ZM39.0245 27.0868C38.6699 26.6496 38.1597 26.3669 37.6011 26.2979C37.0424 26.2289 36.4788 26.379 36.0285 26.7168L30.3918 31.0694C29.9551 31.407 29.6685 31.9026 29.5939 32.4495C29.5192 32.9964 29.6625 33.5507 29.9928 33.9929C30.3474 34.4301 30.8576 34.7128 31.4163 34.7818C31.9749 34.8508 32.5386 34.7007 32.9889 34.3629L38.6255 30.0103C39.0655 29.6751 39.3545 29.179 39.4293 28.631C39.5041 28.083 39.3585 27.5276 39.0245 27.0868ZM40.8381 32.8903C40.6362 32.637 40.3804 32.432 40.0892 32.2902C39.7981 32.1484 39.4789 32.0733 39.1551 32.0705C38.6809 32.071 38.2198 32.2264 37.8421 32.513L32.2054 36.8657C31.9851 37.0356 31.8005 37.2474 31.6623 37.4889C31.5241 37.7305 31.435 37.9969 31.4002 38.273C31.3636 38.5472 31.3827 38.8261 31.4562 39.0928C31.5298 39.3595 31.6563 39.6087 31.8282 39.8254C32.1818 40.2637 32.6914 40.5479 33.2501 40.6182C33.8088 40.6886 34.3731 40.5396 34.8242 40.2027L38.7706 37.1558L40.4609 35.792C40.6823 35.6241 40.868 35.4138 41.0071 35.1733C41.1462 34.9328 41.2359 34.667 41.2711 34.3913C41.3062 34.1157 41.286 33.8359 41.2117 33.5682C41.1373 33.3005 41.0103 33.0503 40.8381 32.8322V32.8903ZM36.6378 45.9481L42.2745 41.5955C42.4942 41.4264 42.6784 41.2156 42.8164 40.9751C42.9544 40.7345 43.0435 40.4691 43.0786 40.1941C43.1136 39.919 43.094 39.6397 43.0207 39.3723C42.9474 39.1048 42.822 38.8545 42.6517 38.6357C42.4498 38.3825 42.194 38.1775 41.9028 38.0356C41.6117 37.8938 41.2925 37.8188 40.9687 37.816C40.4945 37.8165 40.0334 37.9719 39.6556 38.2585L34.019 42.6111C33.7987 42.781 33.6141 42.9929 33.4759 43.2344C33.3377 43.4759 33.2486 43.7424 33.2138 44.0185C33.1752 44.2901 33.1912 44.5667 33.261 44.832C33.3308 45.0974 33.4528 45.3461 33.62 45.5636C33.9731 46.0092 34.4866 46.2989 35.0506 46.3708C35.6146 46.4426 36.1843 46.2909 36.6378 45.9481ZM14.3597 39.4192L21.7084 48.8063C22.6484 49.9655 23.9864 50.7333 25.4616 50.9599C26.9367 51.1865 28.4435 50.8559 29.6881 50.0323L33.62 47.399C33.1974 47.1706 32.8268 46.8568 32.5319 46.4777C32.2428 46.11 32.0298 45.6884 31.9052 45.2376C31.7807 44.7867 31.7471 44.3156 31.8064 43.8516C31.8963 43.147 32.1943 42.4852 32.6624 41.951C32.0677 41.8064 31.5206 41.5104 31.0741 41.0918C30.6276 40.6732 30.2971 40.1462 30.1145 39.5621C29.932 38.9779 29.9036 38.3565 30.0323 37.7581C30.161 37.1598 30.4423 36.6049 30.8488 36.1475C30.2 35.9872 29.6096 35.6469 29.1458 35.1657C28.6819 34.6846 28.3634 34.0822 28.2269 33.4279C28.0904 32.7736 28.1416 32.0941 28.3744 31.4677C28.6073 30.8412 29.0124 30.2933 29.5431 29.887L32.8946 27.2899L45.8581 17.2571C46.0811 17.0885 46.2685 16.8773 46.4092 16.6357C46.5499 16.3941 46.6412 16.1269 46.6779 15.8498C46.7144 15.5755 46.6954 15.2967 46.6218 15.03C46.5483 14.7633 46.4218 14.5141 46.2499 14.2973C45.8963 13.8591 45.3866 13.5749 44.8279 13.5046C44.2692 13.4342 43.705 13.5832 43.2538 13.9201L25.3138 27.7542C25.2075 27.836 25.0806 27.8868 24.9472 27.9009C24.8138 27.915 24.6791 27.8918 24.5581 27.8339C24.4371 27.776 24.3345 27.6857 24.2617 27.5731C24.1889 27.4604 24.1488 27.3297 24.1458 27.1956L24.0007 19.1433C24.0007 17.881 23.5437 14.5367 21.7301 14.174C21.5559 14.1211 21.3719 14.1086 21.1921 14.1375C21.0124 14.1664 20.8416 14.236 20.6927 14.3409C19.6336 15.0663 19.2419 17.968 18.8937 20.7465C18.7123 22.1466 18.5237 23.5902 18.2335 25.0048C18.2183 25.0697 18.1964 25.1329 18.1682 25.1934L13.8156 33.7173C13.4109 34.6348 13.2485 35.6409 13.3437 36.6392C13.439 37.6375 13.7888 38.5947 14.3597 39.4192ZM37.8856 8.60266C37.9237 8.51311 37.9438 8.41693 37.9447 8.31962C37.9457 8.2223 37.9274 8.12576 37.891 8.03549C37.8547 7.94522 37.8009 7.86301 37.7327 7.79353C37.6646 7.72406 37.5834 7.66868 37.4938 7.63058C37.313 7.55362 37.109 7.55166 36.9267 7.62512C36.7444 7.69859 36.5987 7.84146 36.5218 8.02231L33.9755 13.8838C33.9368 13.971 33.9157 14.0649 33.9134 14.1602C33.9111 14.2555 33.9276 14.3504 33.962 14.4393C33.9963 14.5283 34.0479 14.6095 34.1137 14.6785C34.1795 14.7475 34.2582 14.8029 34.3454 14.8414C34.4377 14.8787 34.5361 14.8984 34.6356 14.8994C34.776 14.8985 34.913 14.8569 35.0302 14.7797C35.1474 14.7024 35.2396 14.5928 35.2958 14.4642L37.8856 8.60266ZM28.7741 13.8838L26.1988 8.02231C26.1603 7.93511 26.1049 7.85635 26.0359 7.79055C25.9669 7.72475 25.8856 7.67319 25.7967 7.63883C25.7078 7.60447 25.6129 7.58798 25.5176 7.5903C25.4223 7.59261 25.3284 7.6137 25.2412 7.65234C25.0669 7.7302 24.9303 7.87363 24.8611 8.05152C24.7918 8.22942 24.7955 8.42744 24.8713 8.60266L27.4466 14.4642C27.5032 14.594 27.5965 14.7043 27.7151 14.7817C27.8337 14.859 27.9724 14.8999 28.114 14.8994C28.2134 14.8977 28.3117 14.878 28.4041 14.8414C28.4913 14.8029 28.5701 14.7475 28.6359 14.6785C28.7017 14.6095 28.7532 14.5283 28.7876 14.4393C28.822 14.3504 28.8385 14.2555 28.8361 14.1602C28.8338 14.0649 28.8127 13.971 28.7741 13.8838ZM32.1039 14.2611V8.22544C32.1039 8.03304 32.0274 7.84852 31.8914 7.71248C31.7553 7.57643 31.5708 7.5 31.3784 7.5C31.186 7.5 31.0015 7.57643 30.8655 7.71248C30.7294 7.84852 30.653 8.03304 30.653 8.22544V14.2611C30.653 14.4535 30.7294 14.638 30.8655 14.774C31.0015 14.9101 31.186 14.9865 31.3784 14.9865C31.5708 14.9865 31.7553 14.9101 31.8914 14.774C32.0274 14.638 32.1039 14.4535 32.1039 14.2611Z" fill="#099AA4" stroke="#099AA4" stroke-width="1.3"/>
</svg>
